<?xml version="1.0" encoding="UTF-8" standalone="no"?>
<!DOCTYPE svg PUBLIC "-//W3C//DTD SVG 1.1//EN"
 "http://www.w3.org/Graphics/SVG/1.1/DTD/svg11.dtd">
<!-- Generated by graphviz version 13.1.2 (20250809.0930)
 -->
<!-- Pages: 1 -->
<svg width="1917pt" height="437pt"
 viewBox="0.00 0.00 1917.00 437.00" xmlns="http://www.w3.org/2000/svg" xmlns:xlink="http://www.w3.org/1999/xlink">
<g id="graph0" class="graph" transform="scale(1 1) rotate(0) translate(4 432.83)">
<polygon fill="white" stroke="none" points="-4,4 -4,-432.83 1912.79,-432.83 1912.79,4 -4,4"/>
<!-- 7954488369752760513 -->
<g id="node1" class="node">
<title>7954488369752760513</title>
<ellipse fill="none" stroke="black" cx="1529.56" cy="-302.41" rx="48.58" ry="48.58"/>
<text xml:space="preserve" text-anchor="middle" x="1529.56" y="-297.74" font-family="Helvetica,sans-Serif" font-size="14.00">matmul</text>
</g>
<!-- &#45;1495719030553504736 -->
<g id="node2" class="node">
<title>&#45;1495719030553504736</title>
<polygon fill="none" stroke="black" points="1685.63,-320.41 1614.13,-320.41 1614.13,-284.41 1685.63,-284.41 1685.63,-320.41"/>
<text xml:space="preserve" text-anchor="middle" x="1649.88" y="-297.74" font-family="Helvetica,sans-Serif" font-size="14.00">(0, 0, 0)</text>
</g>
<!-- 7954488369752760513&#45;&gt;&#45;1495719030553504736 -->
<g id="edge1" class="edge">
<title>7954488369752760513&#45;&gt;&#45;1495719030553504736</title>
<path fill="none" stroke="black" d="M1578.34,-302.41C1586.27,-302.41 1594.49,-302.41 1602.38,-302.41"/>
<polygon fill="black" stroke="black" points="1602.14,-305.91 1612.14,-302.41 1602.14,-298.91 1602.14,-305.91"/>
</g>
<!-- 1144987396762591842 -->
<g id="node30" class="node">
<title>1144987396762591842</title>
<ellipse fill="none" stroke="black" cx="1770.21" cy="-302.41" rx="48.58" ry="48.58"/>
<text xml:space="preserve" text-anchor="middle" x="1770.21" y="-297.74" font-family="Helvetica,sans-Serif" font-size="14.00">getitem</text>
</g>
<!-- &#45;1495719030553504736&#45;&gt;1144987396762591842 -->
<g id="edge30" class="edge">
<title>&#45;1495719030553504736&#45;&gt;1144987396762591842</title>
<path fill="none" stroke="black" d="M1686.07,-302.41C1693.57,-302.41 1701.69,-302.41 1709.81,-302.41"/>
<polygon fill="black" stroke="black" points="1709.73,-305.91 1719.73,-302.41 1709.73,-298.91 1709.73,-305.91"/>
</g>
<!-- &#45;4370048916239026725 -->
<g id="node3" class="node">
<title>&#45;4370048916239026725</title>
<polygon fill="none" stroke="black" points="1444.98,-320.41 1390.98,-320.41 1390.98,-284.41 1444.98,-284.41 1444.98,-320.41"/>
<text xml:space="preserve" text-anchor="middle" x="1417.98" y="-297.74" font-family="Helvetica,sans-Serif" font-size="14.00">(0, 0)</text>
</g>
<!-- &#45;4370048916239026725&#45;&gt;7954488369752760513 -->
<g id="edge2" class="edge">
<title>&#45;4370048916239026725&#45;&gt;7954488369752760513</title>
<path fill="none" stroke="black" d="M1445.23,-302.41C1452.54,-302.41 1460.79,-302.41 1469.19,-302.41"/>
<polygon fill="black" stroke="black" points="1469.15,-305.91 1479.15,-302.41 1469.15,-298.91 1469.15,-305.91"/>
</g>
<!-- &#45;3002683985827343036 -->
<g id="node4" class="node">
<title>&#45;3002683985827343036</title>
<polygon fill="none" stroke="black" points="1444.98,-232.41 1390.98,-232.41 1390.98,-196.41 1444.98,-196.41 1444.98,-232.41"/>
<text xml:space="preserve" text-anchor="middle" x="1417.98" y="-209.74" font-family="Helvetica,sans-Serif" font-size="14.00">(0, 0)</text>
</g>
<!-- &#45;3002683985827343036&#45;&gt;7954488369752760513 -->
<g id="edge3" class="edge">
<title>&#45;3002683985827343036&#45;&gt;7954488369752760513</title>
<path fill="none" stroke="black" d="M1441.95,-232.86C1453.59,-242.2 1468.15,-253.9 1482,-265.02"/>
<polygon fill="black" stroke="black" points="1479.78,-267.73 1489.77,-271.27 1484.17,-262.28 1479.78,-267.73"/>
</g>
<!-- &#45;419906922634411779 -->
<g id="node5" class="node">
<title>&#45;419906922634411779</title>
<ellipse fill="none" stroke="black" cx="1529.56" cy="-187.41" rx="48.58" ry="48.58"/>
<text xml:space="preserve" text-anchor="middle" x="1529.56" y="-182.74" font-family="Helvetica,sans-Serif" font-size="14.00">matmul</text>
</g>
<!-- &#45;3002683985827343036&#45;&gt;&#45;419906922634411779 -->
<g id="edge6" class="edge">
<title>&#45;3002683985827343036&#45;&gt;&#45;419906922634411779</title>
<path fill="none" stroke="black" d="M1445.23,-207.95C1453.06,-206.02 1461.97,-203.82 1470.98,-201.6"/>
<polygon fill="black" stroke="black" points="1471.62,-205.05 1480.49,-199.26 1469.94,-198.25 1471.62,-205.05"/>
</g>
<!-- 6193085251180191112 -->
<g id="node8" class="node">
<title>6193085251180191112</title>
<ellipse fill="none" stroke="black" cx="1529.56" cy="-72.41" rx="48.58" ry="48.58"/>
<text xml:space="preserve" text-anchor="middle" x="1529.56" y="-67.74" font-family="Helvetica,sans-Serif" font-size="14.00">matmul</text>
</g>
<!-- &#45;3002683985827343036&#45;&gt;6193085251180191112 -->
<g id="edge9" class="edge">
<title>&#45;3002683985827343036&#45;&gt;6193085251180191112</title>
<path fill="none" stroke="black" d="M1437.69,-195.99C1440.24,-193.2 1442.74,-190.29 1444.98,-187.41 1463.61,-163.46 1463.22,-154.01 1480.98,-129.41 1483.74,-125.59 1486.68,-121.7 1489.7,-117.84"/>
<polygon fill="black" stroke="black" points="1492.37,-120.1 1495.87,-110.1 1486.9,-115.73 1492.37,-120.1"/>
</g>
<!-- &#45;6286898323552405903 -->
<g id="node6" class="node">
<title>&#45;6286898323552405903</title>
<polygon fill="none" stroke="black" points="1685.63,-205.41 1614.13,-205.41 1614.13,-169.41 1685.63,-169.41 1685.63,-205.41"/>
<text xml:space="preserve" text-anchor="middle" x="1649.88" y="-182.74" font-family="Helvetica,sans-Serif" font-size="14.00">(1, 0, 0)</text>
</g>
<!-- &#45;419906922634411779&#45;&gt;&#45;6286898323552405903 -->
<g id="edge4" class="edge">
<title>&#45;419906922634411779&#45;&gt;&#45;6286898323552405903</title>
<path fill="none" stroke="black" d="M1578.34,-187.41C1586.27,-187.41 1594.49,-187.41 1602.38,-187.41"/>
<polygon fill="black" stroke="black" points="1602.14,-190.91 1612.14,-187.41 1602.14,-183.91 1602.14,-190.91"/>
</g>
<!-- 3798954486147085502 -->
<g id="node32" class="node">
<title>3798954486147085502</title>
<ellipse fill="none" stroke="black" cx="1770.21" cy="-187.41" rx="48.58" ry="48.58"/>
<text xml:space="preserve" text-anchor="middle" x="1770.21" y="-182.74" font-family="Helvetica,sans-Serif" font-size="14.00">getitem</text>
</g>
<!-- &#45;6286898323552405903&#45;&gt;3798954486147085502 -->
<g id="edge32" class="edge">
<title>&#45;6286898323552405903&#45;&gt;3798954486147085502</title>
<path fill="none" stroke="black" d="M1686.07,-187.41C1693.57,-187.41 1701.69,-187.41 1709.81,-187.41"/>
<polygon fill="black" stroke="black" points="1709.73,-190.91 1719.73,-187.41 1709.73,-183.91 1709.73,-190.91"/>
</g>
<!-- &#45;1076531565171449716 -->
<g id="node7" class="node">
<title>&#45;1076531565171449716</title>
<polygon fill="none" stroke="black" points="1444.98,-178.41 1390.98,-178.41 1390.98,-142.41 1444.98,-142.41 1444.98,-178.41"/>
<text xml:space="preserve" text-anchor="middle" x="1417.98" y="-155.74" font-family="Helvetica,sans-Serif" font-size="14.00">(1, 0)</text>
</g>
<!-- &#45;1076531565171449716&#45;&gt;&#45;419906922634411779 -->
<g id="edge5" class="edge">
<title>&#45;1076531565171449716&#45;&gt;&#45;419906922634411779</title>
<path fill="none" stroke="black" d="M1445.23,-166.88C1453.06,-168.81 1461.97,-171.01 1470.98,-173.23"/>
<polygon fill="black" stroke="black" points="1469.94,-176.58 1480.49,-175.57 1471.62,-169.78 1469.94,-176.58"/>
</g>
<!-- &#45;77477424760267614 -->
<g id="node9" class="node">
<title>&#45;77477424760267614</title>
<polygon fill="none" stroke="black" points="1685.63,-90.41 1614.13,-90.41 1614.13,-54.41 1685.63,-54.41 1685.63,-90.41"/>
<text xml:space="preserve" text-anchor="middle" x="1649.88" y="-67.74" font-family="Helvetica,sans-Serif" font-size="14.00">(2, 0, 0)</text>
</g>
<!-- 6193085251180191112&#45;&gt;&#45;77477424760267614 -->
<g id="edge7" class="edge">
<title>6193085251180191112&#45;&gt;&#45;77477424760267614</title>
<path fill="none" stroke="black" d="M1578.34,-72.41C1586.27,-72.41 1594.49,-72.41 1602.38,-72.41"/>
<polygon fill="black" stroke="black" points="1602.14,-75.91 1612.14,-72.41 1602.14,-68.91 1602.14,-75.91"/>
</g>
<!-- &#45;9050524214978409459 -->
<g id="node34" class="node">
<title>&#45;9050524214978409459</title>
<ellipse fill="none" stroke="black" cx="1770.21" cy="-72.41" rx="48.58" ry="48.58"/>
<text xml:space="preserve" text-anchor="middle" x="1770.21" y="-67.74" font-family="Helvetica,sans-Serif" font-size="14.00">getitem</text>
</g>
<!-- &#45;77477424760267614&#45;&gt;&#45;9050524214978409459 -->
<g id="edge34" class="edge">
<title>&#45;77477424760267614&#45;&gt;&#45;9050524214978409459</title>
<path fill="none" stroke="black" d="M1686.07,-72.41C1693.57,-72.41 1701.69,-72.41 1709.81,-72.41"/>
<polygon fill="black" stroke="black" points="1709.73,-75.91 1719.73,-72.41 1709.73,-68.91 1709.73,-75.91"/>
</g>
<!-- 8773617086792938336 -->
<g id="node10" class="node">
<title>8773617086792938336</title>
<polygon fill="none" stroke="black" points="1444.98,-90.41 1390.98,-90.41 1390.98,-54.41 1444.98,-54.41 1444.98,-90.41"/>
<text xml:space="preserve" text-anchor="middle" x="1417.98" y="-67.74" font-family="Helvetica,sans-Serif" font-size="14.00">(2, 0)</text>
</g>
<!-- 8773617086792938336&#45;&gt;6193085251180191112 -->
<g id="edge8" class="edge">
<title>8773617086792938336&#45;&gt;6193085251180191112</title>
<path fill="none" stroke="black" d="M1445.23,-72.41C1452.54,-72.41 1460.79,-72.41 1469.19,-72.41"/>
<polygon fill="black" stroke="black" points="1469.15,-75.91 1479.15,-72.41 1469.15,-68.91 1469.15,-75.91"/>
</g>
<!-- &#45;398923970471263807 -->
<g id="node11" class="node">
<title>&#45;398923970471263807</title>
<ellipse fill="none" stroke="black" cx="498.57" cy="-214.41" rx="42.79" ry="42.79"/>
<text xml:space="preserve" text-anchor="middle" x="498.57" y="-209.74" font-family="Helvetica,sans-Serif" font-size="14.00">vstack</text>
</g>
<!-- 7774139290465412958 -->
<g id="node12" class="node">
<title>7774139290465412958</title>
<polygon fill="none" stroke="black" points="631.36,-232.41 577.36,-232.41 577.36,-196.41 631.36,-196.41 631.36,-232.41"/>
</g>
<!-- &#45;398923970471263807&#45;&gt;7774139290465412958 -->
<g id="edge10" class="edge">
<title>&#45;398923970471263807&#45;&gt;7774139290465412958</title>
<path fill="none" stroke="black" d="M541.79,-214.41C549.69,-214.41 557.9,-214.41 565.65,-214.41"/>
<polygon fill="black" stroke="black" points="565.45,-217.91 575.45,-214.41 565.45,-210.91 565.45,-217.91"/>
</g>
<!-- &#45;524754523585225694 -->
<g id="node25" class="node">
<title>&#45;524754523585225694</title>
<ellipse fill="none" stroke="black" cx="732.77" cy="-214.41" rx="65.41" ry="65.41"/>
<text xml:space="preserve" text-anchor="middle" x="732.77" y="-209.74" font-family="Helvetica,sans-Serif" font-size="14.00">compute_R</text>
</g>
<!-- 7774139290465412958&#45;&gt;&#45;524754523585225694 -->
<g id="edge24" class="edge">
<title>7774139290465412958&#45;&gt;&#45;524754523585225694</title>
<path fill="none" stroke="black" d="M631.55,-214.41C638.79,-214.41 647.04,-214.41 655.61,-214.41"/>
<polygon fill="black" stroke="black" points="655.5,-217.91 665.5,-214.41 655.5,-210.91 655.5,-217.91"/>
</g>
<!-- 4352817323635666952 -->
<g id="node13" class="node">
<title>4352817323635666952</title>
<polygon fill="none" stroke="black" points="419.78,-333.41 365.78,-333.41 365.78,-297.41 419.78,-297.41 419.78,-333.41"/>
<text xml:space="preserve" text-anchor="middle" x="392.78" y="-310.74" font-family="Helvetica,sans-Serif" font-size="14.00">(1, 0)</text>
</g>
<!-- 4352817323635666952&#45;&gt;&#45;398923970471263807 -->
<g id="edge11" class="edge">
<title>4352817323635666952&#45;&gt;&#45;398923970471263807</title>
<path fill="none" stroke="black" d="M412.34,-297.36C425.34,-284.7 443.2,-267.32 459.21,-251.74"/>
<polygon fill="black" stroke="black" points="461.57,-254.33 466.29,-244.85 456.69,-249.32 461.57,-254.33"/>
</g>
<!-- &#45;8642135481093864740 -->
<g id="node14" class="node">
<title>&#45;8642135481093864740</title>
<polygon fill="none" stroke="black" points="419.78,-232.41 365.78,-232.41 365.78,-196.41 419.78,-196.41 419.78,-232.41"/>
<text xml:space="preserve" text-anchor="middle" x="392.78" y="-209.74" font-family="Helvetica,sans-Serif" font-size="14.00">(2, 0)</text>
</g>
<!-- &#45;8642135481093864740&#45;&gt;&#45;398923970471263807 -->
<g id="edge12" class="edge">
<title>&#45;8642135481093864740&#45;&gt;&#45;398923970471263807</title>
<path fill="none" stroke="black" d="M420.24,-214.41C427.59,-214.41 435.84,-214.41 444.15,-214.41"/>
<polygon fill="black" stroke="black" points="443.91,-217.91 453.91,-214.41 443.91,-210.91 443.91,-217.91"/>
</g>
<!-- 2391517787391544517 -->
<g id="node15" class="node">
<title>2391517787391544517</title>
<polygon fill="none" stroke="black" points="419.78,-131.41 365.78,-131.41 365.78,-95.41 419.78,-95.41 419.78,-131.41"/>
<text xml:space="preserve" text-anchor="middle" x="392.78" y="-108.74" font-family="Helvetica,sans-Serif" font-size="14.00">(0, 0)</text>
</g>
<!-- 2391517787391544517&#45;&gt;&#45;398923970471263807 -->
<g id="edge13" class="edge">
<title>2391517787391544517&#45;&gt;&#45;398923970471263807</title>
<path fill="none" stroke="black" d="M412.34,-131.47C425.34,-144.13 443.2,-161.51 459.21,-177.08"/>
<polygon fill="black" stroke="black" points="456.69,-179.51 466.29,-183.98 461.57,-174.49 456.69,-179.51"/>
</g>
<!-- &#45;2378115565079746120 -->
<g id="node16" class="node">
<title>&#45;2378115565079746120</title>
<ellipse fill="none" stroke="black" cx="264.37" cy="-65.41" rx="65.41" ry="65.41"/>
<text xml:space="preserve" text-anchor="middle" x="264.37" y="-60.74" font-family="Helvetica,sans-Serif" font-size="14.00">compute_R</text>
</g>
<!-- &#45;2378115565079746120&#45;&gt;2391517787391544517 -->
<g id="edge14" class="edge">
<title>&#45;2378115565079746120&#45;&gt;2391517787391544517</title>
<path fill="none" stroke="black" d="M325.98,-88.43C335.89,-92.19 345.89,-95.99 354.99,-99.44"/>
<polygon fill="black" stroke="black" points="353.58,-102.65 364.17,-102.93 356.07,-96.11 353.58,-102.65"/>
</g>
<!-- 4989433666960669443 -->
<g id="node17" class="node">
<title>4989433666960669443</title>
<polygon fill="none" stroke="black" points="162.95,-83.41 108.95,-83.41 108.95,-47.41 162.95,-47.41 162.95,-83.41"/>
<text xml:space="preserve" text-anchor="middle" x="135.95" y="-60.74" font-family="Helvetica,sans-Serif" font-size="14.00">(0, 0)</text>
</g>
<!-- 4989433666960669443&#45;&gt;&#45;2378115565079746120 -->
<g id="edge15" class="edge">
<title>4989433666960669443&#45;&gt;&#45;2378115565079746120</title>
<path fill="none" stroke="black" d="M163.15,-65.41C170.39,-65.41 178.63,-65.41 187.2,-65.41"/>
<polygon fill="black" stroke="black" points="187.1,-68.91 197.1,-65.41 187.1,-61.91 187.1,-68.91"/>
</g>
<!-- 3260415447132178 -->
<g id="node18" class="node">
<title>3260415447132178</title>
<ellipse fill="none" stroke="black" cx="36.48" cy="-65.41" rx="36.48" ry="36.48"/>
<text xml:space="preserve" text-anchor="middle" x="36.48" y="-60.74" font-family="Helvetica,sans-Serif" font-size="14.00">array</text>
</g>
<!-- 3260415447132178&#45;&gt;4989433666960669443 -->
<g id="edge16" class="edge">
<title>3260415447132178&#45;&gt;4989433666960669443</title>
<path fill="none" stroke="black" d="M73.22,-65.41C81.11,-65.41 89.48,-65.41 97.43,-65.41"/>
<polygon fill="black" stroke="black" points="97.17,-68.91 107.17,-65.41 97.17,-61.91 97.17,-68.91"/>
</g>
<!-- &#45;8656296082782226229 -->
<g id="node19" class="node">
<title>&#45;8656296082782226229</title>
<ellipse fill="none" stroke="black" cx="264.37" cy="-363.41" rx="65.41" ry="65.41"/>
<text xml:space="preserve" text-anchor="middle" x="264.37" y="-358.74" font-family="Helvetica,sans-Serif" font-size="14.00">compute_R</text>
</g>
<!-- &#45;8656296082782226229&#45;&gt;4352817323635666952 -->
<g id="edge17" class="edge">
<title>&#45;8656296082782226229&#45;&gt;4352817323635666952</title>
<path fill="none" stroke="black" d="M325.98,-340.4C335.89,-336.63 345.89,-332.84 354.99,-329.38"/>
<polygon fill="black" stroke="black" points="356.07,-332.72 364.17,-325.9 353.58,-326.17 356.07,-332.72"/>
</g>
<!-- 2552375820220423750 -->
<g id="node20" class="node">
<title>2552375820220423750</title>
<polygon fill="none" stroke="black" points="162.95,-381.41 108.95,-381.41 108.95,-345.41 162.95,-345.41 162.95,-381.41"/>
<text xml:space="preserve" text-anchor="middle" x="135.95" y="-358.74" font-family="Helvetica,sans-Serif" font-size="14.00">(1, 0)</text>
</g>
<!-- 2552375820220423750&#45;&gt;&#45;8656296082782226229 -->
<g id="edge18" class="edge">
<title>2552375820220423750&#45;&gt;&#45;8656296082782226229</title>
<path fill="none" stroke="black" d="M163.15,-363.41C170.39,-363.41 178.63,-363.41 187.2,-363.41"/>
<polygon fill="black" stroke="black" points="187.1,-366.91 197.1,-363.41 187.1,-359.91 187.1,-366.91"/>
</g>
<!-- &#45;993183728977275183 -->
<g id="node21" class="node">
<title>&#45;993183728977275183</title>
<ellipse fill="none" stroke="black" cx="36.48" cy="-363.41" rx="36.48" ry="36.48"/>
<text xml:space="preserve" text-anchor="middle" x="36.48" y="-358.74" font-family="Helvetica,sans-Serif" font-size="14.00">array</text>
</g>
<!-- &#45;993183728977275183&#45;&gt;2552375820220423750 -->
<g id="edge19" class="edge">
<title>&#45;993183728977275183&#45;&gt;2552375820220423750</title>
<path fill="none" stroke="black" d="M73.22,-363.41C81.11,-363.41 89.48,-363.41 97.43,-363.41"/>
<polygon fill="black" stroke="black" points="97.17,-366.91 107.17,-363.41 97.17,-359.91 97.17,-366.91"/>
</g>
<!-- 5836038680777151222 -->
<g id="node22" class="node">
<title>5836038680777151222</title>
<ellipse fill="none" stroke="black" cx="264.37" cy="-214.41" rx="65.41" ry="65.41"/>
<text xml:space="preserve" text-anchor="middle" x="264.37" y="-209.74" font-family="Helvetica,sans-Serif" font-size="14.00">compute_R</text>
</g>
<!-- 5836038680777151222&#45;&gt;&#45;8642135481093864740 -->
<g id="edge20" class="edge">
<title>5836038680777151222&#45;&gt;&#45;8642135481093864740</title>
<path fill="none" stroke="black" d="M330.05,-214.41C338.27,-214.41 346.45,-214.41 354.04,-214.41"/>
<polygon fill="black" stroke="black" points="353.89,-217.91 363.89,-214.41 353.89,-210.91 353.89,-217.91"/>
</g>
<!-- &#45;313644403716917112 -->
<g id="node23" class="node">
<title>&#45;313644403716917112</title>
<polygon fill="none" stroke="black" points="162.95,-232.41 108.95,-232.41 108.95,-196.41 162.95,-196.41 162.95,-232.41"/>
<text xml:space="preserve" text-anchor="middle" x="135.95" y="-209.74" font-family="Helvetica,sans-Serif" font-size="14.00">(2, 0)</text>
</g>
<!-- &#45;313644403716917112&#45;&gt;5836038680777151222 -->
<g id="edge21" class="edge">
<title>&#45;313644403716917112&#45;&gt;5836038680777151222</title>
<path fill="none" stroke="black" d="M163.15,-214.41C170.39,-214.41 178.63,-214.41 187.2,-214.41"/>
<polygon fill="black" stroke="black" points="187.1,-217.91 197.1,-214.41 187.1,-210.91 187.1,-217.91"/>
</g>
<!-- 8941621997636039545 -->
<g id="node24" class="node">
<title>8941621997636039545</title>
<ellipse fill="none" stroke="black" cx="36.48" cy="-214.41" rx="36.48" ry="36.48"/>
<text xml:space="preserve" text-anchor="middle" x="36.48" y="-209.74" font-family="Helvetica,sans-Serif" font-size="14.00">array</text>
</g>
<!-- 8941621997636039545&#45;&gt;&#45;313644403716917112 -->
<g id="edge22" class="edge">
<title>8941621997636039545&#45;&gt;&#45;313644403716917112</title>
<path fill="none" stroke="black" d="M73.22,-214.41C81.11,-214.41 89.48,-214.41 97.43,-214.41"/>
<polygon fill="black" stroke="black" points="97.17,-217.91 107.17,-214.41 97.17,-210.91 97.17,-217.91"/>
</g>
<!-- 7184297469426539422 -->
<g id="node26" class="node">
<title>7184297469426539422</title>
<polygon fill="none" stroke="black" points="888.19,-232.41 834.19,-232.41 834.19,-196.41 888.19,-196.41 888.19,-232.41"/>
</g>
<!-- &#45;524754523585225694&#45;&gt;7184297469426539422 -->
<g id="edge23" class="edge">
<title>&#45;524754523585225694&#45;&gt;7184297469426539422</title>
<path fill="none" stroke="black" d="M798.46,-214.41C806.67,-214.41 814.85,-214.41 822.44,-214.41"/>
<polygon fill="black" stroke="black" points="822.29,-217.91 832.29,-214.41 822.29,-210.91 822.29,-217.91"/>
</g>
<!-- &#45;6791764897822492540 -->
<g id="node27" class="node">
<title>&#45;6791764897822492540</title>
<ellipse fill="none" stroke="black" cx="1013.27" cy="-214.41" rx="89.09" ry="89.09"/>
<text xml:space="preserve" text-anchor="middle" x="1013.27" y="-209.74" font-family="Helvetica,sans-Serif" font-size="14.00">solve_triangular</text>
</g>
<!-- 7184297469426539422&#45;&gt;&#45;6791764897822492540 -->
<g id="edge26" class="edge">
<title>7184297469426539422&#45;&gt;&#45;6791764897822492540</title>
<path fill="none" stroke="black" d="M888.67,-214.41C895.75,-214.41 903.84,-214.41 912.42,-214.41"/>
<polygon fill="black" stroke="black" points="912.42,-217.91 922.42,-214.41 912.42,-210.91 912.42,-217.91"/>
</g>
<!-- 5773374923818695154 -->
<g id="node28" class="node">
<title>5773374923818695154</title>
<polygon fill="none" stroke="black" points="1192.36,-232.41 1138.36,-232.41 1138.36,-196.41 1192.36,-196.41 1192.36,-232.41"/>
</g>
<!-- &#45;6791764897822492540&#45;&gt;5773374923818695154 -->
<g id="edge25" class="edge">
<title>&#45;6791764897822492540&#45;&gt;5773374923818695154</title>
<path fill="none" stroke="black" d="M1102.45,-214.41C1110.91,-214.41 1119.14,-214.41 1126.69,-214.41"/>
<polygon fill="black" stroke="black" points="1126.42,-217.91 1136.42,-214.41 1126.42,-210.91 1126.42,-217.91"/>
</g>
<!-- &#45;4287847228144051780 -->
<g id="node29" class="node">
<title>&#45;4287847228144051780</title>
<ellipse fill="none" stroke="black" cx="1291.67" cy="-214.41" rx="63.31" ry="63.31"/>
<text xml:space="preserve" text-anchor="middle" x="1291.67" y="-209.74" font-family="Helvetica,sans-Serif" font-size="14.00">from&#45;value</text>
</g>
<!-- 5773374923818695154&#45;&gt;&#45;4287847228144051780 -->
<g id="edge28" class="edge">
<title>5773374923818695154&#45;&gt;&#45;4287847228144051780</title>
<path fill="none" stroke="black" d="M1192.72,-214.41C1199.96,-214.41 1208.18,-214.41 1216.7,-214.41"/>
<polygon fill="black" stroke="black" points="1216.51,-217.91 1226.51,-214.41 1216.51,-210.91 1216.51,-217.91"/>
</g>
<!-- &#45;4287847228144051780&#45;&gt;&#45;3002683985827343036 -->
<g id="edge27" class="edge">
<title>&#45;4287847228144051780&#45;&gt;&#45;3002683985827343036</title>
<path fill="none" stroke="black" d="M1355.19,-214.41C1363.36,-214.41 1371.53,-214.41 1379.12,-214.41"/>
<polygon fill="black" stroke="black" points="1378.98,-217.91 1388.98,-214.41 1378.98,-210.91 1378.98,-217.91"/>
</g>
<!-- 6571290321207773917 -->
<g id="node31" class="node">
<title>6571290321207773917</title>
<polygon fill="none" stroke="black" points="1908.79,-320.41 1854.79,-320.41 1854.79,-284.41 1908.79,-284.41 1908.79,-320.41"/>
<text xml:space="preserve" text-anchor="middle" x="1881.79" y="-297.74" font-family="Helvetica,sans-Serif" font-size="14.00">(0, 0)</text>
</g>
<!-- 1144987396762591842&#45;&gt;6571290321207773917 -->
<g id="edge29" class="edge">
<title>1144987396762591842&#45;&gt;6571290321207773917</title>
<path fill="none" stroke="black" d="M1819.27,-302.41C1827.2,-302.41 1835.31,-302.41 1842.94,-302.41"/>
<polygon fill="black" stroke="black" points="1842.92,-305.91 1852.92,-302.41 1842.92,-298.91 1842.92,-305.91"/>
</g>
<!-- &#45;2025305100537389647 -->
<g id="node33" class="node">
<title>&#45;2025305100537389647</title>
<polygon fill="none" stroke="black" points="1908.79,-205.41 1854.79,-205.41 1854.79,-169.41 1908.79,-169.41 1908.79,-205.41"/>
<text xml:space="preserve" text-anchor="middle" x="1881.79" y="-182.74" font-family="Helvetica,sans-Serif" font-size="14.00">(1, 0)</text>
</g>
<!-- 3798954486147085502&#45;&gt;&#45;2025305100537389647 -->
<g id="edge31" class="edge">
<title>3798954486147085502&#45;&gt;&#45;2025305100537389647</title>
<path fill="none" stroke="black" d="M1819.27,-187.41C1827.2,-187.41 1835.31,-187.41 1842.94,-187.41"/>
<polygon fill="black" stroke="black" points="1842.92,-190.91 1852.92,-187.41 1842.92,-183.91 1842.92,-190.91"/>
</g>
<!-- 8314241539165044187 -->
<g id="node35" class="node">
<title>8314241539165044187</title>
<polygon fill="none" stroke="black" points="1908.79,-90.41 1854.79,-90.41 1854.79,-54.41 1908.79,-54.41 1908.79,-90.41"/>
<text xml:space="preserve" text-anchor="middle" x="1881.79" y="-67.74" font-family="Helvetica,sans-Serif" font-size="14.00">(2, 0)</text>
</g>
<!-- &#45;9050524214978409459&#45;&gt;8314241539165044187 -->
<g id="edge33" class="edge">
<title>&#45;9050524214978409459&#45;&gt;8314241539165044187</title>
<path fill="none" stroke="black" d="M1819.27,-72.41C1827.2,-72.41 1835.31,-72.41 1842.94,-72.41"/>
<polygon fill="black" stroke="black" points="1842.92,-75.91 1852.92,-72.41 1842.92,-68.91 1842.92,-75.91"/>
</g>
</g>
</svg>
