<?xml version="1.0" encoding="UTF-8" standalone="no"?>
<!DOCTYPE svg PUBLIC "-//W3C//DTD SVG 1.1//EN"
 "http://www.w3.org/Graphics/SVG/1.1/DTD/svg11.dtd">
<!-- Generated by graphviz version 13.1.2 (20250809.0930)
 -->
<!-- Pages: 1 -->
<svg width="1149pt" height="437pt"
 viewBox="0.00 0.00 1149.00 437.00" xmlns="http://www.w3.org/2000/svg" xmlns:xlink="http://www.w3.org/1999/xlink">
<g id="graph0" class="graph" transform="scale(1 1) rotate(0) translate(4 432.83)">
<polygon fill="white" stroke="none" points="-4,4 -4,-432.83 1144.8,-432.83 1144.8,4 -4,4"/>
<!-- 2074895191280257939 -->
<g id="node1" class="node">
<title>2074895191280257939</title>
<ellipse fill="none" stroke="black" cx="498.57" cy="-214.41" rx="42.79" ry="42.79"/>
<text xml:space="preserve" text-anchor="middle" x="498.57" y="-209.74" font-family="Helvetica,sans-Serif" font-size="14.00">vstack</text>
</g>
<!-- &#45;4713195881180841701 -->
<g id="node2" class="node">
<title>&#45;4713195881180841701</title>
<polygon fill="none" stroke="black" points="631.36,-232.41 577.36,-232.41 577.36,-196.41 631.36,-196.41 631.36,-232.41"/>
</g>
<!-- 2074895191280257939&#45;&gt;&#45;4713195881180841701 -->
<g id="edge1" class="edge">
<title>2074895191280257939&#45;&gt;&#45;4713195881180841701</title>
<path fill="none" stroke="black" d="M541.79,-214.41C549.69,-214.41 557.9,-214.41 565.65,-214.41"/>
<polygon fill="black" stroke="black" points="565.45,-217.91 575.45,-214.41 565.45,-210.91 565.45,-217.91"/>
</g>
<!-- &#45;4404105592555425673 -->
<g id="node15" class="node">
<title>&#45;4404105592555425673</title>
<ellipse fill="none" stroke="black" cx="732.77" cy="-214.41" rx="65.41" ry="65.41"/>
<text xml:space="preserve" text-anchor="middle" x="732.77" y="-209.74" font-family="Helvetica,sans-Serif" font-size="14.00">compute_R</text>
</g>
<!-- &#45;4713195881180841701&#45;&gt;&#45;4404105592555425673 -->
<g id="edge15" class="edge">
<title>&#45;4713195881180841701&#45;&gt;&#45;4404105592555425673</title>
<path fill="none" stroke="black" d="M631.55,-214.41C638.79,-214.41 647.04,-214.41 655.61,-214.41"/>
<polygon fill="black" stroke="black" points="655.5,-217.91 665.5,-214.41 655.5,-210.91 655.5,-217.91"/>
</g>
<!-- 4352817323635666952 -->
<g id="node3" class="node">
<title>4352817323635666952</title>
<polygon fill="none" stroke="black" points="419.78,-333.41 365.78,-333.41 365.78,-297.41 419.78,-297.41 419.78,-333.41"/>
<text xml:space="preserve" text-anchor="middle" x="392.78" y="-310.74" font-family="Helvetica,sans-Serif" font-size="14.00">(1, 0)</text>
</g>
<!-- 4352817323635666952&#45;&gt;2074895191280257939 -->
<g id="edge2" class="edge">
<title>4352817323635666952&#45;&gt;2074895191280257939</title>
<path fill="none" stroke="black" d="M412.34,-297.36C425.34,-284.7 443.2,-267.32 459.21,-251.74"/>
<polygon fill="black" stroke="black" points="461.57,-254.33 466.29,-244.85 456.69,-249.32 461.57,-254.33"/>
</g>
<!-- &#45;8642135481093864740 -->
<g id="node4" class="node">
<title>&#45;8642135481093864740</title>
<polygon fill="none" stroke="black" points="419.78,-232.41 365.78,-232.41 365.78,-196.41 419.78,-196.41 419.78,-232.41"/>
<text xml:space="preserve" text-anchor="middle" x="392.78" y="-209.74" font-family="Helvetica,sans-Serif" font-size="14.00">(2, 0)</text>
</g>
<!-- &#45;8642135481093864740&#45;&gt;2074895191280257939 -->
<g id="edge3" class="edge">
<title>&#45;8642135481093864740&#45;&gt;2074895191280257939</title>
<path fill="none" stroke="black" d="M420.24,-214.41C427.59,-214.41 435.84,-214.41 444.15,-214.41"/>
<polygon fill="black" stroke="black" points="443.91,-217.91 453.91,-214.41 443.91,-210.91 443.91,-217.91"/>
</g>
<!-- 2391517787391544517 -->
<g id="node5" class="node">
<title>2391517787391544517</title>
<polygon fill="none" stroke="black" points="419.78,-131.41 365.78,-131.41 365.78,-95.41 419.78,-95.41 419.78,-131.41"/>
<text xml:space="preserve" text-anchor="middle" x="392.78" y="-108.74" font-family="Helvetica,sans-Serif" font-size="14.00">(0, 0)</text>
</g>
<!-- 2391517787391544517&#45;&gt;2074895191280257939 -->
<g id="edge4" class="edge">
<title>2391517787391544517&#45;&gt;2074895191280257939</title>
<path fill="none" stroke="black" d="M412.34,-131.47C425.34,-144.13 443.2,-161.51 459.21,-177.08"/>
<polygon fill="black" stroke="black" points="456.69,-179.51 466.29,-183.98 461.57,-174.49 456.69,-179.51"/>
</g>
<!-- &#45;2378115565079746120 -->
<g id="node6" class="node">
<title>&#45;2378115565079746120</title>
<ellipse fill="none" stroke="black" cx="264.37" cy="-65.41" rx="65.41" ry="65.41"/>
<text xml:space="preserve" text-anchor="middle" x="264.37" y="-60.74" font-family="Helvetica,sans-Serif" font-size="14.00">compute_R</text>
</g>
<!-- &#45;2378115565079746120&#45;&gt;2391517787391544517 -->
<g id="edge5" class="edge">
<title>&#45;2378115565079746120&#45;&gt;2391517787391544517</title>
<path fill="none" stroke="black" d="M325.98,-88.43C335.89,-92.19 345.89,-95.99 354.99,-99.44"/>
<polygon fill="black" stroke="black" points="353.58,-102.65 364.17,-102.93 356.07,-96.11 353.58,-102.65"/>
</g>
<!-- 4989433666960669443 -->
<g id="node7" class="node">
<title>4989433666960669443</title>
<polygon fill="none" stroke="black" points="162.95,-83.41 108.95,-83.41 108.95,-47.41 162.95,-47.41 162.95,-83.41"/>
<text xml:space="preserve" text-anchor="middle" x="135.95" y="-60.74" font-family="Helvetica,sans-Serif" font-size="14.00">(0, 0)</text>
</g>
<!-- 4989433666960669443&#45;&gt;&#45;2378115565079746120 -->
<g id="edge6" class="edge">
<title>4989433666960669443&#45;&gt;&#45;2378115565079746120</title>
<path fill="none" stroke="black" d="M163.15,-65.41C170.39,-65.41 178.63,-65.41 187.2,-65.41"/>
<polygon fill="black" stroke="black" points="187.1,-68.91 197.1,-65.41 187.1,-61.91 187.1,-68.91"/>
</g>
<!-- 3260415447132178 -->
<g id="node8" class="node">
<title>3260415447132178</title>
<ellipse fill="none" stroke="black" cx="36.48" cy="-65.41" rx="36.48" ry="36.48"/>
<text xml:space="preserve" text-anchor="middle" x="36.48" y="-60.74" font-family="Helvetica,sans-Serif" font-size="14.00">array</text>
</g>
<!-- 3260415447132178&#45;&gt;4989433666960669443 -->
<g id="edge7" class="edge">
<title>3260415447132178&#45;&gt;4989433666960669443</title>
<path fill="none" stroke="black" d="M73.22,-65.41C81.11,-65.41 89.48,-65.41 97.43,-65.41"/>
<polygon fill="black" stroke="black" points="97.17,-68.91 107.17,-65.41 97.17,-61.91 97.17,-68.91"/>
</g>
<!-- &#45;8656296082782226229 -->
<g id="node9" class="node">
<title>&#45;8656296082782226229</title>
<ellipse fill="none" stroke="black" cx="264.37" cy="-363.41" rx="65.41" ry="65.41"/>
<text xml:space="preserve" text-anchor="middle" x="264.37" y="-358.74" font-family="Helvetica,sans-Serif" font-size="14.00">compute_R</text>
</g>
<!-- &#45;8656296082782226229&#45;&gt;4352817323635666952 -->
<g id="edge8" class="edge">
<title>&#45;8656296082782226229&#45;&gt;4352817323635666952</title>
<path fill="none" stroke="black" d="M325.98,-340.4C335.89,-336.63 345.89,-332.84 354.99,-329.38"/>
<polygon fill="black" stroke="black" points="356.07,-332.72 364.17,-325.9 353.58,-326.17 356.07,-332.72"/>
</g>
<!-- 2552375820220423750 -->
<g id="node10" class="node">
<title>2552375820220423750</title>
<polygon fill="none" stroke="black" points="162.95,-381.41 108.95,-381.41 108.95,-345.41 162.95,-345.41 162.95,-381.41"/>
<text xml:space="preserve" text-anchor="middle" x="135.95" y="-358.74" font-family="Helvetica,sans-Serif" font-size="14.00">(1, 0)</text>
</g>
<!-- 2552375820220423750&#45;&gt;&#45;8656296082782226229 -->
<g id="edge9" class="edge">
<title>2552375820220423750&#45;&gt;&#45;8656296082782226229</title>
<path fill="none" stroke="black" d="M163.15,-363.41C170.39,-363.41 178.63,-363.41 187.2,-363.41"/>
<polygon fill="black" stroke="black" points="187.1,-366.91 197.1,-363.41 187.1,-359.91 187.1,-366.91"/>
</g>
<!-- &#45;993183728977275183 -->
<g id="node11" class="node">
<title>&#45;993183728977275183</title>
<ellipse fill="none" stroke="black" cx="36.48" cy="-363.41" rx="36.48" ry="36.48"/>
<text xml:space="preserve" text-anchor="middle" x="36.48" y="-358.74" font-family="Helvetica,sans-Serif" font-size="14.00">array</text>
</g>
<!-- &#45;993183728977275183&#45;&gt;2552375820220423750 -->
<g id="edge10" class="edge">
<title>&#45;993183728977275183&#45;&gt;2552375820220423750</title>
<path fill="none" stroke="black" d="M73.22,-363.41C81.11,-363.41 89.48,-363.41 97.43,-363.41"/>
<polygon fill="black" stroke="black" points="97.17,-366.91 107.17,-363.41 97.17,-359.91 97.17,-366.91"/>
</g>
<!-- 5836038680777151222 -->
<g id="node12" class="node">
<title>5836038680777151222</title>
<ellipse fill="none" stroke="black" cx="264.37" cy="-214.41" rx="65.41" ry="65.41"/>
<text xml:space="preserve" text-anchor="middle" x="264.37" y="-209.74" font-family="Helvetica,sans-Serif" font-size="14.00">compute_R</text>
</g>
<!-- 5836038680777151222&#45;&gt;&#45;8642135481093864740 -->
<g id="edge11" class="edge">
<title>5836038680777151222&#45;&gt;&#45;8642135481093864740</title>
<path fill="none" stroke="black" d="M330.05,-214.41C338.27,-214.41 346.45,-214.41 354.04,-214.41"/>
<polygon fill="black" stroke="black" points="353.89,-217.91 363.89,-214.41 353.89,-210.91 353.89,-217.91"/>
</g>
<!-- &#45;313644403716917112 -->
<g id="node13" class="node">
<title>&#45;313644403716917112</title>
<polygon fill="none" stroke="black" points="162.95,-232.41 108.95,-232.41 108.95,-196.41 162.95,-196.41 162.95,-232.41"/>
<text xml:space="preserve" text-anchor="middle" x="135.95" y="-209.74" font-family="Helvetica,sans-Serif" font-size="14.00">(2, 0)</text>
</g>
<!-- &#45;313644403716917112&#45;&gt;5836038680777151222 -->
<g id="edge12" class="edge">
<title>&#45;313644403716917112&#45;&gt;5836038680777151222</title>
<path fill="none" stroke="black" d="M163.15,-214.41C170.39,-214.41 178.63,-214.41 187.2,-214.41"/>
<polygon fill="black" stroke="black" points="187.1,-217.91 197.1,-214.41 187.1,-210.91 187.1,-217.91"/>
</g>
<!-- 8941621997636039545 -->
<g id="node14" class="node">
<title>8941621997636039545</title>
<ellipse fill="none" stroke="black" cx="36.48" cy="-214.41" rx="36.48" ry="36.48"/>
<text xml:space="preserve" text-anchor="middle" x="36.48" y="-209.74" font-family="Helvetica,sans-Serif" font-size="14.00">array</text>
</g>
<!-- 8941621997636039545&#45;&gt;&#45;313644403716917112 -->
<g id="edge13" class="edge">
<title>8941621997636039545&#45;&gt;&#45;313644403716917112</title>
<path fill="none" stroke="black" d="M73.22,-214.41C81.11,-214.41 89.48,-214.41 97.43,-214.41"/>
<polygon fill="black" stroke="black" points="97.17,-217.91 107.17,-214.41 97.17,-210.91 97.17,-217.91"/>
</g>
<!-- &#45;6876591717138859010 -->
<g id="node16" class="node">
<title>&#45;6876591717138859010</title>
<polygon fill="none" stroke="black" points="888.19,-232.41 834.19,-232.41 834.19,-196.41 888.19,-196.41 888.19,-232.41"/>
</g>
<!-- &#45;4404105592555425673&#45;&gt;&#45;6876591717138859010 -->
<g id="edge14" class="edge">
<title>&#45;4404105592555425673&#45;&gt;&#45;6876591717138859010</title>
<path fill="none" stroke="black" d="M798.46,-214.41C806.67,-214.41 814.85,-214.41 822.44,-214.41"/>
<polygon fill="black" stroke="black" points="822.29,-217.91 832.29,-214.41 822.29,-210.91 822.29,-217.91"/>
</g>
<!-- &#45;6544164623856760142 -->
<g id="node17" class="node">
<title>&#45;6544164623856760142</title>
<ellipse fill="none" stroke="black" cx="987.5" cy="-214.41" rx="63.31" ry="63.31"/>
<text xml:space="preserve" text-anchor="middle" x="987.5" y="-209.74" font-family="Helvetica,sans-Serif" font-size="14.00">from&#45;value</text>
</g>
<!-- &#45;6876591717138859010&#45;&gt;&#45;6544164623856760142 -->
<g id="edge17" class="edge">
<title>&#45;6876591717138859010&#45;&gt;&#45;6544164623856760142</title>
<path fill="none" stroke="black" d="M888.55,-214.41C895.78,-214.41 904,-214.41 912.52,-214.41"/>
<polygon fill="black" stroke="black" points="912.34,-217.91 922.34,-214.41 912.34,-210.91 912.34,-217.91"/>
</g>
<!-- &#45;5365586697432638718 -->
<g id="node18" class="node">
<title>&#45;5365586697432638718</title>
<polygon fill="none" stroke="black" points="1140.8,-232.41 1086.8,-232.41 1086.8,-196.41 1140.8,-196.41 1140.8,-232.41"/>
<text xml:space="preserve" text-anchor="middle" x="1113.8" y="-209.74" font-family="Helvetica,sans-Serif" font-size="14.00">(0, 0)</text>
</g>
<!-- &#45;6544164623856760142&#45;&gt;&#45;5365586697432638718 -->
<g id="edge16" class="edge">
<title>&#45;6544164623856760142&#45;&gt;&#45;5365586697432638718</title>
<path fill="none" stroke="black" d="M1051.01,-214.41C1059.19,-214.41 1067.35,-214.41 1074.94,-214.41"/>
<polygon fill="black" stroke="black" points="1074.8,-217.91 1084.8,-214.41 1074.8,-210.91 1074.8,-217.91"/>
</g>
</g>
</svg>
