<?xml version="1.0" encoding="UTF-8" standalone="no"?>
<!DOCTYPE svg PUBLIC "-//W3C//DTD SVG 1.1//EN"
 "http://www.w3.org/Graphics/SVG/1.1/DTD/svg11.dtd">
<!-- Generated by graphviz version 13.1.2 (20250809.0930)
 -->
<!-- Pages: 1 -->
<svg width="526pt" height="335pt"
 viewBox="0.00 0.00 526.00 335.00" xmlns="http://www.w3.org/2000/svg" xmlns:xlink="http://www.w3.org/1999/xlink">
<g id="graph0" class="graph" transform="scale(1 1) rotate(0) translate(4 331.15)">
<polygon fill="white" stroke="none" points="-4,4 -4,-331.15 521.81,-331.15 521.81,4 -4,4"/>
<!-- 807780530733433218 -->
<g id="node1" class="node">
<title>807780530733433218</title>
<ellipse fill="none" stroke="black" cx="138.58" cy="-278.58" rx="48.58" ry="48.58"/>
<text xml:space="preserve" text-anchor="middle" x="138.58" y="-273.9" font-family="Helvetica,sans-Serif" font-size="14.00">matmul</text>
</g>
<!-- 6424146599245675716 -->
<g id="node2" class="node">
<title>6424146599245675716</title>
<polygon fill="none" stroke="black" points="294.65,-296.58 223.15,-296.58 223.15,-260.58 294.65,-260.58 294.65,-296.58"/>
<text xml:space="preserve" text-anchor="middle" x="258.9" y="-273.9" font-family="Helvetica,sans-Serif" font-size="14.00">(0, 0, 0)</text>
</g>
<!-- 807780530733433218&#45;&gt;6424146599245675716 -->
<g id="edge1" class="edge">
<title>807780530733433218&#45;&gt;6424146599245675716</title>
<path fill="none" stroke="black" d="M187.36,-278.58C195.29,-278.58 203.51,-278.58 211.4,-278.58"/>
<polygon fill="black" stroke="black" points="211.16,-282.08 221.16,-278.58 211.16,-275.08 211.16,-282.08"/>
</g>
<!-- &#45;3527641952572880430 -->
<g id="node11" class="node">
<title>&#45;3527641952572880430</title>
<ellipse fill="none" stroke="black" cx="379.23" cy="-278.58" rx="48.58" ry="48.58"/>
<text xml:space="preserve" text-anchor="middle" x="379.23" y="-273.9" font-family="Helvetica,sans-Serif" font-size="14.00">getitem</text>
</g>
<!-- 6424146599245675716&#45;&gt;&#45;3527641952572880430 -->
<g id="edge11" class="edge">
<title>6424146599245675716&#45;&gt;&#45;3527641952572880430</title>
<path fill="none" stroke="black" d="M295.09,-278.58C302.59,-278.58 310.71,-278.58 318.83,-278.58"/>
<polygon fill="black" stroke="black" points="318.75,-282.08 328.75,-278.58 318.75,-275.08 318.75,-282.08"/>
</g>
<!-- &#45;8061556201760503935 -->
<g id="node3" class="node">
<title>&#45;8061556201760503935</title>
<polygon fill="none" stroke="black" points="54,-296.58 0,-296.58 0,-260.58 54,-260.58 54,-296.58"/>
<text xml:space="preserve" text-anchor="middle" x="27" y="-273.9" font-family="Helvetica,sans-Serif" font-size="14.00">(0, 0)</text>
</g>
<!-- &#45;8061556201760503935&#45;&gt;807780530733433218 -->
<g id="edge2" class="edge">
<title>&#45;8061556201760503935&#45;&gt;807780530733433218</title>
<path fill="none" stroke="black" d="M54.25,-278.58C61.56,-278.58 69.81,-278.58 78.21,-278.58"/>
<polygon fill="black" stroke="black" points="78.17,-282.08 88.17,-278.58 78.17,-275.08 78.17,-282.08"/>
</g>
<!-- &#45;878112955304752012 -->
<g id="node4" class="node">
<title>&#45;878112955304752012</title>
<polygon fill="none" stroke="black" points="54,-208.58 0,-208.58 0,-172.58 54,-172.58 54,-208.58"/>
<text xml:space="preserve" text-anchor="middle" x="27" y="-185.9" font-family="Helvetica,sans-Serif" font-size="14.00">(0, 0)</text>
</g>
<!-- &#45;878112955304752012&#45;&gt;807780530733433218 -->
<g id="edge3" class="edge">
<title>&#45;878112955304752012&#45;&gt;807780530733433218</title>
<path fill="none" stroke="black" d="M50.97,-209.03C62.61,-218.37 77.17,-230.06 91.02,-241.18"/>
<polygon fill="black" stroke="black" points="88.81,-243.9 98.79,-247.43 93.19,-238.44 88.81,-243.9"/>
</g>
<!-- &#45;7051504298944825745 -->
<g id="node5" class="node">
<title>&#45;7051504298944825745</title>
<ellipse fill="none" stroke="black" cx="138.58" cy="-163.58" rx="48.58" ry="48.58"/>
<text xml:space="preserve" text-anchor="middle" x="138.58" y="-158.9" font-family="Helvetica,sans-Serif" font-size="14.00">matmul</text>
</g>
<!-- &#45;878112955304752012&#45;&gt;&#45;7051504298944825745 -->
<g id="edge5" class="edge">
<title>&#45;878112955304752012&#45;&gt;&#45;7051504298944825745</title>
<path fill="none" stroke="black" d="M54.25,-184.11C62.08,-182.18 70.99,-179.98 80,-177.76"/>
<polygon fill="black" stroke="black" points="80.64,-181.21 89.51,-175.42 78.96,-174.42 80.64,-181.21"/>
</g>
<!-- 3020844482377553579 -->
<g id="node8" class="node">
<title>3020844482377553579</title>
<ellipse fill="none" stroke="black" cx="138.58" cy="-48.58" rx="48.58" ry="48.58"/>
<text xml:space="preserve" text-anchor="middle" x="138.58" y="-43.9" font-family="Helvetica,sans-Serif" font-size="14.00">matmul</text>
</g>
<!-- &#45;878112955304752012&#45;&gt;3020844482377553579 -->
<g id="edge8" class="edge">
<title>&#45;878112955304752012&#45;&gt;3020844482377553579</title>
<path fill="none" stroke="black" d="M46.72,-172.16C49.26,-169.36 51.76,-166.45 54,-163.58 72.63,-139.63 72.24,-130.17 90,-105.58 92.76,-101.76 95.7,-97.86 98.72,-94"/>
<polygon fill="black" stroke="black" points="101.39,-96.26 104.89,-86.26 95.92,-91.89 101.39,-96.26"/>
</g>
<!-- &#45;69224810715386293 -->
<g id="node6" class="node">
<title>&#45;69224810715386293</title>
<polygon fill="none" stroke="black" points="294.65,-181.58 223.15,-181.58 223.15,-145.58 294.65,-145.58 294.65,-181.58"/>
<text xml:space="preserve" text-anchor="middle" x="258.9" y="-158.9" font-family="Helvetica,sans-Serif" font-size="14.00">(1, 0, 0)</text>
</g>
<!-- &#45;7051504298944825745&#45;&gt;&#45;69224810715386293 -->
<g id="edge4" class="edge">
<title>&#45;7051504298944825745&#45;&gt;&#45;69224810715386293</title>
<path fill="none" stroke="black" d="M187.36,-163.58C195.29,-163.58 203.51,-163.58 211.4,-163.58"/>
<polygon fill="black" stroke="black" points="211.16,-167.08 221.16,-163.58 211.16,-160.08 211.16,-167.08"/>
</g>
<!-- 2521943191637569034 -->
<g id="node13" class="node">
<title>2521943191637569034</title>
<ellipse fill="none" stroke="black" cx="379.23" cy="-163.58" rx="48.58" ry="48.58"/>
<text xml:space="preserve" text-anchor="middle" x="379.23" y="-158.9" font-family="Helvetica,sans-Serif" font-size="14.00">getitem</text>
</g>
<!-- &#45;69224810715386293&#45;&gt;2521943191637569034 -->
<g id="edge13" class="edge">
<title>&#45;69224810715386293&#45;&gt;2521943191637569034</title>
<path fill="none" stroke="black" d="M295.09,-163.58C302.59,-163.58 310.71,-163.58 318.83,-163.58"/>
<polygon fill="black" stroke="black" points="318.75,-167.08 328.75,-163.58 318.75,-160.08 318.75,-167.08"/>
</g>
<!-- 1788592450203884117 -->
<g id="node7" class="node">
<title>1788592450203884117</title>
<polygon fill="none" stroke="black" points="54,-154.58 0,-154.58 0,-118.58 54,-118.58 54,-154.58"/>
<text xml:space="preserve" text-anchor="middle" x="27" y="-131.9" font-family="Helvetica,sans-Serif" font-size="14.00">(1, 0)</text>
</g>
<!-- 1788592450203884117&#45;&gt;&#45;7051504298944825745 -->
<g id="edge6" class="edge">
<title>1788592450203884117&#45;&gt;&#45;7051504298944825745</title>
<path fill="none" stroke="black" d="M54.25,-143.04C62.08,-144.97 70.99,-147.17 80,-149.39"/>
<polygon fill="black" stroke="black" points="78.96,-152.74 89.51,-151.73 80.64,-145.94 78.96,-152.74"/>
</g>
<!-- &#45;4860404103714287460 -->
<g id="node9" class="node">
<title>&#45;4860404103714287460</title>
<polygon fill="none" stroke="black" points="294.65,-66.58 223.15,-66.58 223.15,-30.58 294.65,-30.58 294.65,-66.58"/>
<text xml:space="preserve" text-anchor="middle" x="258.9" y="-43.9" font-family="Helvetica,sans-Serif" font-size="14.00">(2, 0, 0)</text>
</g>
<!-- 3020844482377553579&#45;&gt;&#45;4860404103714287460 -->
<g id="edge7" class="edge">
<title>3020844482377553579&#45;&gt;&#45;4860404103714287460</title>
<path fill="none" stroke="black" d="M187.36,-48.58C195.29,-48.58 203.51,-48.58 211.4,-48.58"/>
<polygon fill="black" stroke="black" points="211.16,-52.08 221.16,-48.58 211.16,-45.08 211.16,-52.08"/>
</g>
<!-- &#45;554664916785760008 -->
<g id="node15" class="node">
<title>&#45;554664916785760008</title>
<ellipse fill="none" stroke="black" cx="379.23" cy="-48.58" rx="48.58" ry="48.58"/>
<text xml:space="preserve" text-anchor="middle" x="379.23" y="-43.9" font-family="Helvetica,sans-Serif" font-size="14.00">getitem</text>
</g>
<!-- &#45;4860404103714287460&#45;&gt;&#45;554664916785760008 -->
<g id="edge15" class="edge">
<title>&#45;4860404103714287460&#45;&gt;&#45;554664916785760008</title>
<path fill="none" stroke="black" d="M295.09,-48.58C302.59,-48.58 310.71,-48.58 318.83,-48.58"/>
<polygon fill="black" stroke="black" points="318.75,-52.08 328.75,-48.58 318.75,-45.08 318.75,-52.08"/>
</g>
<!-- 5082109801271461126 -->
<g id="node10" class="node">
<title>5082109801271461126</title>
<polygon fill="none" stroke="black" points="54,-66.58 0,-66.58 0,-30.58 54,-30.58 54,-66.58"/>
<text xml:space="preserve" text-anchor="middle" x="27" y="-43.9" font-family="Helvetica,sans-Serif" font-size="14.00">(2, 0)</text>
</g>
<!-- 5082109801271461126&#45;&gt;3020844482377553579 -->
<g id="edge9" class="edge">
<title>5082109801271461126&#45;&gt;3020844482377553579</title>
<path fill="none" stroke="black" d="M54.25,-48.58C61.56,-48.58 69.81,-48.58 78.21,-48.58"/>
<polygon fill="black" stroke="black" points="78.17,-52.08 88.17,-48.58 78.17,-45.08 78.17,-52.08"/>
</g>
<!-- 482543222442504355 -->
<g id="node12" class="node">
<title>482543222442504355</title>
<polygon fill="none" stroke="black" points="517.81,-296.58 463.81,-296.58 463.81,-260.58 517.81,-260.58 517.81,-296.58"/>
<text xml:space="preserve" text-anchor="middle" x="490.81" y="-273.9" font-family="Helvetica,sans-Serif" font-size="14.00">(0, 0)</text>
</g>
<!-- &#45;3527641952572880430&#45;&gt;482543222442504355 -->
<g id="edge10" class="edge">
<title>&#45;3527641952572880430&#45;&gt;482543222442504355</title>
<path fill="none" stroke="black" d="M428.29,-278.58C436.22,-278.58 444.33,-278.58 451.96,-278.58"/>
<polygon fill="black" stroke="black" points="451.94,-282.08 461.94,-278.58 451.94,-275.08 451.94,-282.08"/>
</g>
<!-- &#45;1954514624297741338 -->
<g id="node14" class="node">
<title>&#45;1954514624297741338</title>
<polygon fill="none" stroke="black" points="517.81,-181.58 463.81,-181.58 463.81,-145.58 517.81,-145.58 517.81,-181.58"/>
<text xml:space="preserve" text-anchor="middle" x="490.81" y="-158.9" font-family="Helvetica,sans-Serif" font-size="14.00">(1, 0)</text>
</g>
<!-- 2521943191637569034&#45;&gt;&#45;1954514624297741338 -->
<g id="edge12" class="edge">
<title>2521943191637569034&#45;&gt;&#45;1954514624297741338</title>
<path fill="none" stroke="black" d="M428.29,-163.58C436.22,-163.58 444.33,-163.58 451.96,-163.58"/>
<polygon fill="black" stroke="black" points="451.94,-167.08 461.94,-163.58 451.94,-160.08 451.94,-167.08"/>
</g>
<!-- 7895634027666646714 -->
<g id="node16" class="node">
<title>7895634027666646714</title>
<polygon fill="none" stroke="black" points="517.81,-66.58 463.81,-66.58 463.81,-30.58 517.81,-30.58 517.81,-66.58"/>
<text xml:space="preserve" text-anchor="middle" x="490.81" y="-43.9" font-family="Helvetica,sans-Serif" font-size="14.00">(2, 0)</text>
</g>
<!-- &#45;554664916785760008&#45;&gt;7895634027666646714 -->
<g id="edge14" class="edge">
<title>&#45;554664916785760008&#45;&gt;7895634027666646714</title>
<path fill="none" stroke="black" d="M428.29,-48.58C436.22,-48.58 444.33,-48.58 451.96,-48.58"/>
<polygon fill="black" stroke="black" points="451.94,-52.08 461.94,-48.58 451.94,-45.08 451.94,-52.08"/>
</g>
</g>
</svg>
