<?xml version="1.0" encoding="UTF-8" standalone="no"?>
<!DOCTYPE svg PUBLIC "-//W3C//DTD SVG 1.1//EN"
 "http://www.w3.org/Graphics/SVG/1.1/DTD/svg11.dtd">
<!-- Generated by graphviz version 13.1.2 (20250809.0930)
 -->
<!-- Pages: 1 -->
<svg width="335pt" height="454pt"
 viewBox="0.00 0.00 335.00 454.00" xmlns="http://www.w3.org/2000/svg" xmlns:xlink="http://www.w3.org/1999/xlink">
<g id="graph0" class="graph" transform="scale(1 1) rotate(0) translate(4 450.31)">
<polygon fill="white" stroke="none" points="-4,4 -4,-450.31 331.15,-450.31 331.15,4 -4,4"/>
<!-- &#45;3707316986693214205 -->
<g id="node1" class="node">
<title>&#45;3707316986693214205</title>
<ellipse fill="none" stroke="black" cx="48.58" cy="-120.58" rx="48.58" ry="48.58"/>
<text xml:space="preserve" text-anchor="middle" x="48.58" y="-115.9" font-family="Helvetica,sans-Serif" font-size="14.00">matmul</text>
</g>
<!-- &#45;2710323138260334357 -->
<g id="node2" class="node">
<title>&#45;2710323138260334357</title>
<polygon fill="none" stroke="black" points="84.33,-241.15 12.83,-241.15 12.83,-205.15 84.33,-205.15 84.33,-241.15"/>
<text xml:space="preserve" text-anchor="middle" x="48.58" y="-218.48" font-family="Helvetica,sans-Serif" font-size="14.00">(0, 0, 0)</text>
</g>
<!-- &#45;3707316986693214205&#45;&gt;&#45;2710323138260334357 -->
<g id="edge1" class="edge">
<title>&#45;3707316986693214205&#45;&gt;&#45;2710323138260334357</title>
<path fill="none" stroke="black" d="M48.58,-169.51C48.58,-177.78 48.58,-186.13 48.58,-193.67"/>
<polygon fill="black" stroke="black" points="45.08,-193.57 48.58,-203.57 52.08,-193.57 45.08,-193.57"/>
</g>
<!-- 5212516097909535790 -->
<g id="node11" class="node">
<title>5212516097909535790</title>
<ellipse fill="none" stroke="black" cx="48.58" cy="-325.73" rx="48.58" ry="48.58"/>
<text xml:space="preserve" text-anchor="middle" x="48.58" y="-321.06" font-family="Helvetica,sans-Serif" font-size="14.00">getitem</text>
</g>
<!-- &#45;2710323138260334357&#45;&gt;5212516097909535790 -->
<g id="edge11" class="edge">
<title>&#45;2710323138260334357&#45;&gt;5212516097909535790</title>
<path fill="none" stroke="black" d="M48.58,-241.22C48.58,-248.15 48.58,-256.61 48.58,-265.46"/>
<polygon fill="black" stroke="black" points="45.08,-265.27 48.58,-275.27 52.08,-265.27 45.08,-265.27"/>
</g>
<!-- &#45;2711249006444636004 -->
<g id="node3" class="node">
<title>&#45;2711249006444636004</title>
<polygon fill="none" stroke="black" points="75.58,-36 21.58,-36 21.58,0 75.58,0 75.58,-36"/>
<text xml:space="preserve" text-anchor="middle" x="48.58" y="-13.32" font-family="Helvetica,sans-Serif" font-size="14.00">(0, 0)</text>
</g>
<!-- &#45;2711249006444636004&#45;&gt;&#45;3707316986693214205 -->
<g id="edge2" class="edge">
<title>&#45;2711249006444636004&#45;&gt;&#45;3707316986693214205</title>
<path fill="none" stroke="black" d="M48.58,-36.06C48.58,-43 48.58,-51.46 48.58,-60.3"/>
<polygon fill="black" stroke="black" points="45.08,-60.11 48.58,-70.11 52.08,-60.11 45.08,-60.11"/>
</g>
<!-- &#45;7017125320826586140 -->
<g id="node4" class="node">
<title>&#45;7017125320826586140</title>
<polygon fill="none" stroke="black" points="154.58,-36 100.58,-36 100.58,0 154.58,0 154.58,-36"/>
<text xml:space="preserve" text-anchor="middle" x="127.58" y="-13.32" font-family="Helvetica,sans-Serif" font-size="14.00">(0, 0)</text>
</g>
<!-- &#45;7017125320826586140&#45;&gt;&#45;3707316986693214205 -->
<g id="edge3" class="edge">
<title>&#45;7017125320826586140&#45;&gt;&#45;3707316986693214205</title>
<path fill="none" stroke="black" d="M114.18,-36.06C106.16,-46.26 95.56,-59.76 85.22,-72.93"/>
<polygon fill="black" stroke="black" points="82.49,-70.73 79.07,-80.76 88,-75.05 82.49,-70.73"/>
</g>
<!-- 6365031794629165119 -->
<g id="node5" class="node">
<title>6365031794629165119</title>
<ellipse fill="none" stroke="black" cx="163.58" cy="-120.58" rx="48.58" ry="48.58"/>
<text xml:space="preserve" text-anchor="middle" x="163.58" y="-115.9" font-family="Helvetica,sans-Serif" font-size="14.00">matmul</text>
</g>
<!-- &#45;7017125320826586140&#45;&gt;6365031794629165119 -->
<g id="edge5" class="edge">
<title>&#45;7017125320826586140&#45;&gt;6365031794629165119</title>
<path fill="none" stroke="black" d="M133.68,-36.06C136.51,-43.96 140.05,-53.85 143.69,-64.03"/>
<polygon fill="black" stroke="black" points="140.33,-65 146.99,-73.24 146.92,-62.64 140.33,-65"/>
</g>
<!-- &#45;8091443499154200715 -->
<g id="node8" class="node">
<title>&#45;8091443499154200715</title>
<ellipse fill="none" stroke="black" cx="278.58" cy="-120.58" rx="48.58" ry="48.58"/>
<text xml:space="preserve" text-anchor="middle" x="278.58" y="-115.9" font-family="Helvetica,sans-Serif" font-size="14.00">matmul</text>
</g>
<!-- &#45;7017125320826586140&#45;&gt;&#45;8091443499154200715 -->
<g id="edge9" class="edge">
<title>&#45;7017125320826586140&#45;&gt;&#45;8091443499154200715</title>
<path fill="none" stroke="black" d="M154.69,-32.6C173.91,-42.64 200,-57.09 221.58,-72 225.46,-74.68 229.39,-77.56 233.28,-80.54"/>
<polygon fill="black" stroke="black" points="231.04,-83.23 241.06,-86.66 235.37,-77.72 231.04,-83.23"/>
</g>
<!-- &#45;7501502431259235524 -->
<g id="node6" class="node">
<title>&#45;7501502431259235524</title>
<polygon fill="none" stroke="black" points="199.33,-241.15 127.83,-241.15 127.83,-205.15 199.33,-205.15 199.33,-241.15"/>
<text xml:space="preserve" text-anchor="middle" x="163.58" y="-218.48" font-family="Helvetica,sans-Serif" font-size="14.00">(1, 0, 0)</text>
</g>
<!-- 6365031794629165119&#45;&gt;&#45;7501502431259235524 -->
<g id="edge4" class="edge">
<title>6365031794629165119&#45;&gt;&#45;7501502431259235524</title>
<path fill="none" stroke="black" d="M163.58,-169.51C163.58,-177.78 163.58,-186.13 163.58,-193.67"/>
<polygon fill="black" stroke="black" points="160.08,-193.57 163.58,-203.57 167.08,-193.57 160.08,-193.57"/>
</g>
<!-- 7377085199555983668 -->
<g id="node13" class="node">
<title>7377085199555983668</title>
<ellipse fill="none" stroke="black" cx="163.58" cy="-325.73" rx="48.58" ry="48.58"/>
<text xml:space="preserve" text-anchor="middle" x="163.58" y="-321.06" font-family="Helvetica,sans-Serif" font-size="14.00">getitem</text>
</g>
<!-- &#45;7501502431259235524&#45;&gt;7377085199555983668 -->
<g id="edge13" class="edge">
<title>&#45;7501502431259235524&#45;&gt;7377085199555983668</title>
<path fill="none" stroke="black" d="M163.58,-241.22C163.58,-248.15 163.58,-256.61 163.58,-265.46"/>
<polygon fill="black" stroke="black" points="160.08,-265.27 163.58,-275.27 167.08,-265.27 160.08,-265.27"/>
</g>
<!-- 92870356884895223 -->
<g id="node7" class="node">
<title>92870356884895223</title>
<polygon fill="none" stroke="black" points="226.58,-36 172.58,-36 172.58,0 226.58,0 226.58,-36"/>
<text xml:space="preserve" text-anchor="middle" x="199.58" y="-13.32" font-family="Helvetica,sans-Serif" font-size="14.00">(1, 0)</text>
</g>
<!-- 92870356884895223&#45;&gt;6365031794629165119 -->
<g id="edge6" class="edge">
<title>92870356884895223&#45;&gt;6365031794629165119</title>
<path fill="none" stroke="black" d="M193.47,-36.06C190.64,-43.96 187.1,-53.85 183.46,-64.03"/>
<polygon fill="black" stroke="black" points="180.24,-62.64 180.16,-73.24 186.83,-65 180.24,-62.64"/>
</g>
<!-- 8850227615473622211 -->
<g id="node9" class="node">
<title>8850227615473622211</title>
<polygon fill="none" stroke="black" points="314.33,-241.15 242.83,-241.15 242.83,-205.15 314.33,-205.15 314.33,-241.15"/>
<text xml:space="preserve" text-anchor="middle" x="278.58" y="-218.48" font-family="Helvetica,sans-Serif" font-size="14.00">(2, 0, 0)</text>
</g>
<!-- &#45;8091443499154200715&#45;&gt;8850227615473622211 -->
<g id="edge7" class="edge">
<title>&#45;8091443499154200715&#45;&gt;8850227615473622211</title>
<path fill="none" stroke="black" d="M278.58,-169.51C278.58,-177.78 278.58,-186.13 278.58,-193.67"/>
<polygon fill="black" stroke="black" points="275.08,-193.57 278.58,-203.57 282.08,-193.57 275.08,-193.57"/>
</g>
<!-- 7304210984873168234 -->
<g id="node15" class="node">
<title>7304210984873168234</title>
<ellipse fill="none" stroke="black" cx="278.58" cy="-325.73" rx="48.58" ry="48.58"/>
<text xml:space="preserve" text-anchor="middle" x="278.58" y="-321.06" font-family="Helvetica,sans-Serif" font-size="14.00">getitem</text>
</g>
<!-- 8850227615473622211&#45;&gt;7304210984873168234 -->
<g id="edge15" class="edge">
<title>8850227615473622211&#45;&gt;7304210984873168234</title>
<path fill="none" stroke="black" d="M278.58,-241.22C278.58,-248.15 278.58,-256.61 278.58,-265.46"/>
<polygon fill="black" stroke="black" points="275.08,-265.27 278.58,-275.27 282.08,-265.27 275.08,-265.27"/>
</g>
<!-- 4701841798779506355 -->
<g id="node10" class="node">
<title>4701841798779506355</title>
<polygon fill="none" stroke="black" points="305.58,-36 251.58,-36 251.58,0 305.58,0 305.58,-36"/>
<text xml:space="preserve" text-anchor="middle" x="278.58" y="-13.32" font-family="Helvetica,sans-Serif" font-size="14.00">(2, 0)</text>
</g>
<!-- 4701841798779506355&#45;&gt;&#45;8091443499154200715 -->
<g id="edge8" class="edge">
<title>4701841798779506355&#45;&gt;&#45;8091443499154200715</title>
<path fill="none" stroke="black" d="M278.58,-36.06C278.58,-43 278.58,-51.46 278.58,-60.3"/>
<polygon fill="black" stroke="black" points="275.08,-60.11 278.58,-70.11 282.08,-60.11 275.08,-60.11"/>
</g>
<!-- 6213996917906868175 -->
<g id="node12" class="node">
<title>6213996917906868175</title>
<polygon fill="none" stroke="black" points="75.58,-446.31 21.58,-446.31 21.58,-410.31 75.58,-410.31 75.58,-446.31"/>
<text xml:space="preserve" text-anchor="middle" x="48.58" y="-423.63" font-family="Helvetica,sans-Serif" font-size="14.00">(0, 0)</text>
</g>
<!-- 5212516097909535790&#45;&gt;6213996917906868175 -->
<g id="edge10" class="edge">
<title>5212516097909535790&#45;&gt;6213996917906868175</title>
<path fill="none" stroke="black" d="M48.58,-374.66C48.58,-382.93 48.58,-391.28 48.58,-398.83"/>
<polygon fill="black" stroke="black" points="45.08,-398.72 48.58,-408.72 52.08,-398.72 45.08,-398.72"/>
</g>
<!-- &#45;2382598503838295389 -->
<g id="node14" class="node">
<title>&#45;2382598503838295389</title>
<polygon fill="none" stroke="black" points="190.58,-446.31 136.58,-446.31 136.58,-410.31 190.58,-410.31 190.58,-446.31"/>
<text xml:space="preserve" text-anchor="middle" x="163.58" y="-423.63" font-family="Helvetica,sans-Serif" font-size="14.00">(1, 0)</text>
</g>
<!-- 7377085199555983668&#45;&gt;&#45;2382598503838295389 -->
<g id="edge12" class="edge">
<title>7377085199555983668&#45;&gt;&#45;2382598503838295389</title>
<path fill="none" stroke="black" d="M163.58,-374.66C163.58,-382.93 163.58,-391.28 163.58,-398.83"/>
<polygon fill="black" stroke="black" points="160.08,-398.72 163.58,-408.72 167.08,-398.72 160.08,-398.72"/>
</g>
<!-- 7956948135864138445 -->
<g id="node16" class="node">
<title>7956948135864138445</title>
<polygon fill="none" stroke="black" points="305.58,-446.31 251.58,-446.31 251.58,-410.31 305.58,-410.31 305.58,-446.31"/>
<text xml:space="preserve" text-anchor="middle" x="278.58" y="-423.63" font-family="Helvetica,sans-Serif" font-size="14.00">(2, 0)</text>
</g>
<!-- 7304210984873168234&#45;&gt;7956948135864138445 -->
<g id="edge14" class="edge">
<title>7304210984873168234&#45;&gt;7956948135864138445</title>
<path fill="none" stroke="black" d="M278.58,-374.66C278.58,-382.93 278.58,-391.28 278.58,-398.83"/>
<polygon fill="black" stroke="black" points="275.08,-398.72 278.58,-408.72 282.08,-398.72 275.08,-398.72"/>
</g>
</g>
</svg>
